<?xml version="1.0" encoding="UTF-8"?>
<svg width="56px" height="24px" viewBox="0 0 56 24" version="1.1" xmlns="http://www.w3.org/2000/svg" xmlns:xlink="http://www.w3.org/1999/xlink">
    <!-- Generator: Sketch 51.2 (57519) - http://www.bohemiancoding.com/sketch -->
    <title>logo-ssl</title>
    <desc>Created with Sketch.</desc>
    <defs></defs>
    <g id="Page-1" stroke="none" stroke-width="1" fill="none" fill-rule="evenodd">
        <g id="logo-ssl" fill-rule="nonzero">
            <path d="M4,3.4 L45.6,3.4 C47.8064037,3.4065896 49.5934104,5.19359627 49.6,7.4 L49.6,16.7 C49.5934104,18.9064037 47.8064037,20.6934104 45.6,20.7 L4,20.7 C1.79359627,20.6934104 0.00658960222,18.9064037 -5.8373445e-16,16.7 L-5.8373445e-16,7.4 C-0.0138459225,6.33494976 0.403133777,5.30946954 1.15630166,4.55630166 C1.90946954,3.80313378 2.93494976,3.38615408 4,3.4 Z" id="Path_292" fill="#20AA4B"></path>
            <circle id="Ellipse_20" stroke="#20AA4B" stroke-width="2" fill="#FFFFFF" cx="44" cy="12" r="11"></circle>
            <path d="M47.7041785,9.2075123 L47.0041785,9.2075123 L47.0041785,8.0075123 C46.9864156,7.60088246 46.9192557,7.19792306 46.8041785,6.8075123 C46.6296065,6.43668346 46.3928554,6.09846764 46.1041785,5.8075123 C45.8350566,5.51602873 45.4880154,5.307804 45.1041785,5.2075123 C44.7263192,5.0445081 44.3144792,4.9758681 43.9041785,5.0075123 C43.4975486,5.02527513 43.0945892,5.09243503 42.7041785,5.2075123 C42.3579365,5.38516563 42.0238688,5.58560625 41.7041785,5.8075123 C41.4155015,6.09846764 41.1787504,6.43668346 41.0041785,6.8075123 C40.8411743,7.1853716 40.7725343,7.5972116 40.8041785,8.0075123 L40.8041785,9.2075123 L40.2041785,9.2075123 C39.8678101,9.20634214 39.5463931,9.34640278 39.3182398,9.59356891 C39.0900864,9.84073504 38.9761456,10.172312 39.0041785,10.5075123 L39.0041785,16.6075123 C39.0053621,16.9503401 39.1505015,17.2769038 39.4041785,17.5075123 C39.6380267,17.7566669 39.9625365,17.9008935 40.3041785,17.9075123 L47.7041785,17.9075123 C48.0470062,17.9063287 48.3735699,17.7611892 48.6041785,17.5075123 C48.8533331,17.2736641 48.9975597,16.9491542 49.0041785,16.6075123 L49.0041785,10.5075123 C49.0029948,10.1646845 48.8578554,9.83812082 48.6041785,9.6075123 C48.3471989,9.39310195 48.0355312,9.25458296 47.7041785,9.2075123 Z M44.0041785,14.7075123 C43.6613507,14.7063287 43.334787,14.5611892 43.1041785,14.3075123 C42.8550238,14.0736641 42.7107972,13.7491542 42.7041785,13.4075123 C42.7053621,13.0646845 42.8505015,12.7381208 43.1041785,12.5075123 C43.3380267,12.2583577 43.6625365,12.1141311 44.0041785,12.1075123 C44.3470062,12.1086959 44.6735699,12.2538353 44.9041785,12.5075123 C45.1533331,12.7413605 45.2975597,13.0658704 45.3041785,13.4075123 C45.2681846,14.1100335 44.7066997,14.6715184 44.0041785,14.7075123 Z M45.9041785,9.2075123 L42.0041785,9.2075123 L42.0041785,8.0075123 C41.9902031,7.50426055 42.2121492,7.02337728 42.6041785,6.7075123 C42.960369,6.31201341 43.472134,6.09268555 44.0041785,6.1075123 C44.5323212,6.11216669 45.0365717,6.32827406 45.4041785,6.7075123 C45.7793669,7.03623832 45.9974409,7.50873204 46.0041785,8.0075123 C45.9213207,8.40183368 45.8877306,8.80491544 45.9041785,9.2075123 Z" id="Path_293" fill="#20AA4B"></path>
            <path d="M24.5,7.4 L26.6,7.4 L25,14.9 L29.5,14.9 L29.1,16.6 L22.6,16.6 L24.5,7.4 Z M6.7,13.6 L4.8,13.6 C4.70560637,14.546559 5.07884671,15.4796598 5.8,16.1 C6.64840834,16.6868888 7.67068544,16.9688963 8.7,16.9 C9.13947144,16.8823894 9.57555758,16.8152992 10,16.7 C10.4289103,16.6136127 10.8366461,16.4437228 11.2,16.2 C11.5704269,15.9798346 11.8798346,15.6704269 12.1,15.3 C12.3046561,14.8620488 12.4072331,14.3833561 12.4,13.9 C12.3910245,13.5251554 12.3235442,13.1540139 12.2,12.8 C12.09257,12.5295696 11.9209704,12.2893302 11.7,12.1 C11.4730853,11.8768625 11.2000075,11.7061889 10.9,11.6 C10.6,11.5 10.2,11.4 9.9,11.3 L9.3,11.2 C9.06304638,11.1467259 8.82933182,11.0799504 8.6,11 C8.37835453,10.9024015 8.17533914,10.767058 8,10.6 C7.78709416,10.479803 7.66841409,10.2424429 7.7,10 C7.67383004,9.82676726 7.70921514,9.64984177 7.8,9.5 C7.91163718,9.28614085 8.08614085,9.11163718 8.3,9 C8.5,8.9 8.6,8.8 8.8,8.8 C9.19374735,8.69997883 9.60625265,8.69997883 10,8.8 C10.1854168,8.80377144 10.3631317,8.87485739 10.5,9 C10.7,9.1 10.8,9.3 10.9,9.4 C10.97567,9.62529981 11.0095592,9.86252459 11,10.1 L13,10.1 C13.0072331,9.61664391 12.9046561,9.13795125 12.7,8.7 C12.5470785,8.31549707 12.2639225,7.99694648 11.9,7.8 C11.5632084,7.57418388 11.1915875,7.40526527 10.8,7.3 C10.3755576,7.18470079 9.93947144,7.11761061 9.5,7.1 C9.0598177,7.10990219 8.62280343,7.17713515 8.2,7.3 C7.78337508,7.42356835 7.38110395,7.59118132 7,7.8 C6.6600266,8.02581155 6.38439528,8.33589678 6.2,8.7 C5.91964688,9.0736831 5.7782109,9.53335006 5.8,10 C5.80829059,10.342396 5.87596206,10.6807534 6,11 C6.10743003,11.2704304 6.27902964,11.5106698 6.5,11.7 C6.7,11.9 7,12 7.2,12.2 L8.1,12.5 C8.38751614,12.6139055 8.69130186,12.6814135 9,12.7 C9.3,12.8 9.5,12.9 9.8,13 C10.0060031,13.0749279 10.1816795,13.2154689 10.3,13.4 C10.4418219,13.5665699 10.5135156,13.781651 10.5,14 C10.4792527,14.2124848 10.4108931,14.4175638 10.3,14.6 C10.2213349,14.7786326 10.0786326,14.9213349 9.9,15 C9.71756376,15.1108931 9.51248484,15.1792527 9.3,15.2 C9.11107605,15.2815215 8.90515124,15.3158423 8.7,15.3 C8.42927824,15.3227887 8.15678235,15.2887267 7.9,15.2 C7.66251007,15.2062047 7.4375302,15.0937148 7.3,14.9 C7.11546891,14.7816795 6.97492786,14.6060031 6.9,14.4 C6.77507566,14.151374 6.70677309,13.8781638 6.7,13.6 Z M15.7,13.6 L13.8,13.6 C13.7056064,14.546559 14.0788467,15.4796598 14.8,16.1 C15.6484083,16.6868888 16.6706854,16.9688963 17.7,16.9 C18.1394714,16.8823894 18.5755576,16.8152992 19,16.7 C19.4289103,16.6136127 19.8366461,16.4437228 20.2,16.2 C20.5704269,15.9798346 20.8798346,15.6704269 21.1,15.3 C21.3046561,14.8620488 21.4072331,14.3833561 21.4,13.9 C21.3910245,13.5251554 21.3235442,13.1540139 21.2,12.8 C21.09257,12.5295696 20.9209704,12.2893302 20.7,12.1 C20.4730853,11.8768625 20.2000075,11.7061889 19.9,11.6 C19.6,11.5 19.2,11.4 18.9,11.3 L18.3,11.2 C18.0630464,11.1467259 17.8293318,11.0799504 17.6,11 C17.3783545,10.9024015 17.1753391,10.767058 17,10.6 C16.7870942,10.479803 16.6684141,10.2424429 16.7,10 C16.67383,9.82676726 16.7092151,9.64984177 16.8,9.5 C16.9116372,9.28614085 17.0861408,9.11163718 17.3,9 C17.5,8.9 17.6,8.8 17.8,8.8 C18.1937474,8.69997883 18.6062526,8.69997883 19,8.8 C19.1854168,8.80377144 19.3631317,8.87485739 19.5,9 C19.7,9.1 19.8,9.3 19.9,9.4 C19.97567,9.62529981 20.0095592,9.86252459 20,10.1 L22,10.1 C22.0072331,9.61664391 21.9046561,9.13795125 21.7,8.7 C21.5470785,8.31549707 21.2639225,7.99694648 20.9,7.8 C20.5632084,7.57418388 20.1915875,7.40526527 19.8,7.3 C19.3755576,7.18470079 18.9394714,7.11761061 18.5,7.1 C18.0598177,7.10990219 17.6228034,7.17713515 17.2,7.3 C16.7833751,7.42356835 16.381104,7.59118132 16,7.8 C15.6600266,8.02581155 15.3843953,8.33589678 15.2,8.7 C14.9955011,9.10239138 14.8925096,9.54868802 14.9,10 C14.9082704,10.3423983 14.9759425,10.6807591 15.1,11 C15.20743,11.2704304 15.3790296,11.5106698 15.6,11.7 C15.8,11.9 16.1,12 16.3,12.2 L17.2,12.5 C17.4875161,12.6139055 17.7913019,12.6814135 18.1,12.7 C18.4,12.8 18.6,12.9 18.9,13 C19.1060031,13.0749279 19.2816795,13.2154689 19.4,13.4 C19.5418219,13.5665699 19.6135156,13.781651 19.6,14 C19.5792527,14.2124848 19.5108931,14.4175638 19.4,14.6 C19.3213349,14.7786326 19.1786326,14.9213349 19,15 C18.8175638,15.1108931 18.6124848,15.1792527 18.4,15.2 C18.211076,15.2815215 18.0051512,15.3158423 17.8,15.3 C17.5292782,15.3227887 17.2567823,15.2887267 17,15.2 C16.7625101,15.2062047 16.5375302,15.0937148 16.4,14.9 C16.2154689,14.7816795 16.0749279,14.6060031 16,14.4 C15.7996158,14.1825882 15.6919813,13.8955629 15.7,13.6 Z" id="Path_294" stroke="#FFFFFF" stroke-width="0.2" fill="#FFFFFF"></path>
        </g>
    </g>
</svg>