<svg height="163" viewBox="0 0 989 163" width="989" xmlns="http://www.w3.org/2000/svg"><g fill="#fff" fill-rule="evenodd"><path d="m574.5 139.484q0 5.213-1.257 7.439a5.932 5.932 0 0 1 -9.972 0q-1.257-2.271-1.257-7.439v-42.719h-8.884v41.205a56.476 56.476 0 0 0 .5 7.929 15.707 15.707 0 0 0 2.807 7.083q3.9 5.48 11.816 5.479 10.643 0 13.91-9.577 1.215-3.564 1.216-10.914v-41.205h-8.879zm40.894-42.719v37.819l-14.415-37.819h-8.879v60.805h8.421v-40.448l15.335 40.448h7.961v-60.805h-8.421zm17.136 0v60.805h8.883v-60.805zm47.64 11.893a16.577 16.577 0 0 0 -2.724-6.949q-3.981-5.835-12.318-5.835t-12.36 5.835a17.077 17.077 0 0 0 -2.514 5.925 39.405 39.405 0 0 0 -.754 8.464v22.139a47.531 47.531 0 0 0 .544 7.439 17.323 17.323 0 0 0 2.724 6.949q3.979 5.837 12.36 5.836 8.337 0 12.318-5.836a17.083 17.083 0 0 0 2.514-5.924 39.412 39.412 0 0 0 .754-8.464v-22.137a47.684 47.684 0 0 0 -.544-7.44zm-21.662 3.208a10.03 10.03 0 0 1 1-3.876 5.709 5.709 0 0 1 5.615-3.3q5.195 0 6.369 5.568a35.107 35.107 0 0 1 .335 6.014v21.783q0 2.583-.126 4.365a10.1 10.1 0 0 1 -1 3.92 5.676 5.676 0 0 1 -5.573 3.3q-5.2 0-6.411-5.613a34.6 34.6 0 0 1 -.335-5.969v-21.782q0-2.583.126-4.41zm8.592-19.957 6.2-8.107h-8.338l-3.9 8.107zm45.084 4.856v37.819l-14.418-37.819h-8.882v60.805h8.422v-40.448l15.335 40.448h7.959v-60.805h-8.42zm59.162 0-8 38.176-7.926-38.176h-12.947v60.805h8.427v-44.724l9.888 44.724h4.944l9.972-44.724v44.724h8.422v-60.805h-12.784zm42.854 42.719q0 5.213-1.256 7.439a5.933 5.933 0 0 1 -9.973 0q-1.257-2.271-1.257-7.439v-42.719h-8.882v41.205a56.326 56.326 0 0 0 .5 7.929 15.7 15.7 0 0 0 2.807 7.083q3.9 5.48 11.815 5.479 10.643 0 13.911-9.577 1.215-3.564 1.215-10.914v-41.205h-8.88zm31.6-43.61a14.653 14.653 0 0 0 -10.1 3.608q-4.819 4.188-4.819 11.359 0 7.217 5.95 13.319 1.3 1.337 7.751 6.682a48.5 48.5 0 0 1 6.285 5.97 8.989 8.989 0 0 1 2.221 5.88 7.086 7.086 0 0 1 -1.76 4.989 6.094 6.094 0 0 1 -4.776 1.96q-7.166 0-8.925-10.914l-8.464 2.628q2.724 17.106 17.389 17.106 7.122 0 11.438-4.41a15.13 15.13 0 0 0 4.231-11.051 17.749 17.749 0 0 0 -3.687-11.181 58.861 58.861 0 0 0 -8.548-8.152 75.9 75.9 0 0 1 -7.583-6.681 9.117 9.117 0 0 1 -2.389-6.1 6.222 6.222 0 0 1 1.718-4.5 5.371 5.371 0 0 1 4.023-1.693q5.571 0 7.625 9.043l8.464-2.673q-3.687-15.19-16.048-15.19zm22.584.891v60.805h8.883v-60.805h-8.887zm48.016 17.818q0-8.953-4.232-13.943-4.065-4.766-11.355-4.766a16.178 16.178 0 0 0 -7.709 1.782 13.628 13.628 0 0 0 -6.7 8.6q-1.049 3.386-1.048 12.116v16.973q0 4.989.336 8.552a18.48 18.48 0 0 0 2.43 7.8q3.9 6.771 12.821 6.771 8.421 0 12.36-6.014 3.352-5.166 3.352-13.987 0-.713-.042-2.272h-8.841v1.505q0 11.94-6.829 11.939a5.571 5.571 0 0 1 -5.74-3.92q-.965-2.716-.964-9.088v-20.222q0-2.672.168-4.721a11 11 0 0 1 1.173-4.01 5.482 5.482 0 0 1 5.237-2.984q6.7 0 6.7 10.6v1.247h8.841q.04-1.246.042-1.96zm31.17 42.987h9.092l-11.562-60.805h-12.153l-10.978 60.805h8.673l2.3-13.23h12.198zm-13.2-21.917 4.567-27.217 4.693 27.217zm28.33-38.888v60.805h26.481v-8.686h-17.6v-52.119z"/><path d="m164.824 3.724h-59.619v74.854q0 21.241-6.812 29.444a21.723 21.723 0 0 1 -17.5 8.2q-9.816 0-15.234-6.152t-5.42-20.8v-85.546h-59.917v99.023q0 30.618 13.989 45.337t38.6 14.722q18.457 0 31.128-6.592t25.121-22.114v25.19h55.664z"/><path d="m531.613 89.564q0-30.762-10.108-49.951a68.243 68.243 0 0 0 -29.443-29.3q-19.335-10.105-52.734-10.105-41.164 0-64.527 22.559t-23.364 59.033q0 25.636 11.646 44.6t29.37 27.685q17.722 8.713 48.633 8.716 35.595 0 54.638-10.181t32.52-33.618l-58.74-5.42q-5.57 7.032-10.4 9.815a33.89 33.89 0 0 1 -16.7 4.394q-13.918 0-22.559-10.107-6.151-7.032-7.763-21.387h119.531zm-119.385-21.826q1.462-13.915 6.885-20.947a27 27 0 0 1 22.7-11.279q12.3 0 19.849 7.471t9.3 24.756h-58.74z"/><path d="m98.4 159.29h59.766v-79.39q0-17.722 6.615-25.488a21.215 21.215 0 0 1 16.905-7.764 17.666 17.666 0 0 1 11.023 3.589 19 19 0 0 1 6.614 9.448q1.175 3.663 1.177 13.916v85.689h59.765v-80.273q0-16.843 6.423-24.463t16.935-7.617q8.9 0 14.889 8.057 4.084 5.129 4.087 15.674v88.622h59.766v-97.7q0-31.641-14.044-46.509t-39.061-14.873q-16.969 0-28.525 5.493t-25.6 20.728q-6.894-13.036-17.75-19.629t-29.485-6.592q-17.31 0-29.56 6.006t-24.28 20.215v-22.705h-55.66z"/></g></svg>